<svg xmlns="http://www.w3.org/2000/svg" xmlns:xlink="http://www.w3.org/1999/xlink" viewBox="0 0 207.37 178.87"><defs><style>.cls-1{fill:url(#linear-gradient);}.cls-2{fill:#c7a92f;}.cls-3{fill:url(#linear-gradient-2);}.cls-4{fill:url(#linear-gradient-3);}.cls-5{fill:url(#linear-gradient-4);}.cls-6{fill:url(#linear-gradient-5);}.cls-7{fill:url(#linear-gradient-6);}.cls-8{fill:url(#linear-gradient-7);}</style><linearGradient id="linear-gradient" x1="-107.63" y1="-36.54" x2="-107.63" y2="-171.78" gradientTransform="matrix(0.94, -0.34, -0.34, -0.94, 122.25, -14.48)" gradientUnits="userSpaceOnUse"><stop offset="0" stop-color="#9b83af"/><stop offset="0.29" stop-color="#855fa3"/><stop offset="0.57" stop-color="#74459b"/><stop offset="0.81" stop-color="#6b3593"/><stop offset="1" stop-color="#67308f"/></linearGradient><linearGradient id="linear-gradient-2" x1="-18.67" y1="-171.86" x2="-18.67" y2="-36.65" gradientTransform="matrix(0.94, -0.34, -0.34, -0.94, 122.25, -14.48)" gradientUnits="userSpaceOnUse"><stop offset="0" stop-color="#67308f"/><stop offset="1" stop-color="#522d7f"/></linearGradient><linearGradient id="linear-gradient-3" x1="-63.08" y1="-171.78" x2="-63.08" y2="-36.48" gradientTransform="matrix(0.94, -0.34, -0.34, -0.94, 122.25, -14.48)" gradientUnits="userSpaceOnUse"><stop offset="0" stop-color="#67308f"/><stop offset="1" stop-color="#452a72"/></linearGradient><linearGradient id="linear-gradient-4" x1="17.11" y1="-37.2" x2="17.11" y2="-128.4" gradientTransform="matrix(0.94, -0.34, -0.34, -0.94, 122.25, -14.48)" gradientUnits="userSpaceOnUse"><stop offset="0" stop-color="#e6d16c"/><stop offset="0.3" stop-color="#ddc75e"/><stop offset="0.88" stop-color="#cbae36"/><stop offset="1" stop-color="#c7a92f"/></linearGradient><linearGradient id="linear-gradient-5" x1="25.89" y1="-36.56" x2="25.89" y2="-171.86" xlink:href="#linear-gradient"/><linearGradient id="linear-gradient-6" x1="-18.65" y1="-37.2" x2="-18.65" y2="-172.5" gradientTransform="matrix(0.94, -0.34, -0.34, -0.94, 122.25, -14.48)" gradientUnits="userSpaceOnUse"><stop offset="0" stop-color="#e6d16c"/><stop offset="0.38" stop-color="#dbc357"/><stop offset="1" stop-color="#c7a92f"/></linearGradient><linearGradient id="linear-gradient-7" x1="-99.06" y1="-128.42" x2="-99.06" y2="-37.21" xlink:href="#linear-gradient-4"/></defs><title>Asset 1</title><g id="Layer_2" data-name="Layer 2"><g id="Layer_1-2" data-name="Layer 1"><path class="cls-1" d="M107.29,173.46l-13.35,4.89a8.68,8.68,0,0,1-9.53-2.49L2.11,80.4A8.68,8.68,0,0,1,5.7,66.58L19,61.69a8.68,8.68,0,0,1,9.56,2.48l82.28,95.47a8.68,8.68,0,0,1-3.6,13.82Z"/><path class="cls-2" d="M149.71,158.61l-13.3,4.89a8.68,8.68,0,0,1-9.56-2.48L44.53,65.55a8.68,8.68,0,0,1,3.59-13.79l13.35-4.89A8.68,8.68,0,0,1,71,49.35l82.27,95.41a8.68,8.68,0,0,1-3.59,13.85Z"/><path class="cls-3" d="M190.77,142.88l-13.36,4.88a8.68,8.68,0,0,1-9.56-2.48L85.59,49.82A8.68,8.68,0,0,1,89.18,36l13.35-4.89a8.68,8.68,0,0,1,9.56,2.48l82.32,95.47a8.68,8.68,0,0,1-3.64,13.82Z"/><path class="cls-4" d="M94.09,178.3l13.32-4.89a8.68,8.68,0,0,0,5.69-8.07l1.15-126a8.68,8.68,0,0,0-11.67-8.23L89.23,36a8.68,8.68,0,0,0-5.69,8.07l-1.15,126a8.68,8.68,0,0,0,11.7,8.23Z"/><path class="cls-5" d="M201.64,92.63,188.3,97.52A8.68,8.68,0,0,1,178.74,95l-51.4-59.83a8.68,8.68,0,0,1,3.59-13.82l13.35-4.89A8.68,8.68,0,0,1,153.84,19l51.39,59.78a8.68,8.68,0,0,1-3.59,13.87Z"/><path class="cls-6" d="M177.56,147.76l13.35-4.89a8.68,8.68,0,0,0,5.7-8.11l1.15-126A8.68,8.68,0,0,0,186.09.53L172.74,5.42A8.68,8.68,0,0,0,167,13.49l-1.15,126a8.68,8.68,0,0,0,11.66,8.27Z"/><path class="cls-7" d="M136,163.64l13.35-4.88a8.68,8.68,0,0,0,5.69-8.07l1.15-126a8.68,8.68,0,0,0-11.67-8.23l-13.35,4.89a8.68,8.68,0,0,0-5.69,8.07l-1.15,126A8.68,8.68,0,0,0,136,163.64Z"/><path class="cls-8" d="M53.11,147l13.3-4.88a8.68,8.68,0,0,0,5.69-8l1-79a8.68,8.68,0,0,0-11.66-8.27L48.12,51.76a8.68,8.68,0,0,0-5.69,8l-1,79A8.68,8.68,0,0,0,53.11,147Z"/></g></g></svg>